# xmcd CD database file
#
# Track frame offsets:
#	150
#	19545
#	35072
#	54358
#	74409
#	93837
#	111739
#	136414
#	154566
#	171851
#	195016
#	215353
#
# Disc length: 3260 seconds
#
# Revision: 0
# Processed by: cddbd v1.5.2PL0 Copyright (c) Steve Scherf et al.
# Submitted via: CDex 1.70beta2
#
DISCID=9d0cba0c
DTITLE=Sara Gazarek and Josh Nelson - Dream in the Blue
DYEAR=2016
DGENRE=Jazz
TTITLE0=Blackbird - Bye Bye Blackbird
TTITLE1=O Pato
TTITLE2=Sunny Side of the Street
TTITLE3=All Again
TTITLE4=I Can't Make You Love Me
TTITLE5=Mood Indigo
TTITLE6=No Moon at All
TTITLE7=Petit Papillon
TTITLE8=I Don't Love You Anymore
TTITLE9=Father Father
TTITLE10=Behind Me
TTITLE11=Cello Song - Without a Song
EXTD=YEAR: 2016
EXTT0=
EXTT1=
EXTT2=
EXTT3=
EXTT4=
EXTT5=
EXTT6=
EXTT7=
EXTT8=
EXTT9=
EXTT10=
EXTT11=
PLAYORDER=
